<?xml version="1.0" encoding="utf-8"?>
<!-- Generator: Adobe Illustrator 24.2.0, SVG Export Plug-In . SVG Version: 6.00 Build 0)  -->
<svg version="1.1" id="Layer_1" xmlns="http://www.w3.org/2000/svg" xmlns:xlink="http://www.w3.org/1999/xlink" x="0px" y="0px"
	 viewBox="0 0 101.3 120.4" style="enable-background:new 0 0 101.3 120.4;" xml:space="preserve">
<style type="text/css">
	.st0{fill-rule:evenodd;clip-rule:evenodd;fill:url(#SVGID_1_);}
</style>
<g>
	
		<linearGradient id="SVGID_1_" gradientUnits="userSpaceOnUse" x1="-307.9287" y1="441.8175" x2="-306.9287" y2="441.8175" gradientTransform="matrix(101.2601 0 0 -120.412 31180.9043 53260.3398)">
		<stop  offset="0" style="stop-color:#FF1800"/>
		<stop  offset="1" style="stop-color:#FF009B"/>
	</linearGradient>
	<path class="st0" d="M81.8,21.7c1.2-2.2,1.8-4.6,1.8-7C83.6,6.6,77,0,68.9,0c-6.7,0-12.6,4.6-14.2,11.1L50.6,11
		C22.7,11,0,33.6,0,61.6C0,74.8,5.2,87.5,14.4,97c-1.9,2.5-3,5.6-2.9,8.8c0,8.1,6.6,14.6,14.7,14.7c6.2,0,11.5-3.9,13.7-9.4
		c3.6,0.8,7.2,1.2,10.9,1.2c28,0,50.6-22.7,50.6-50.6C101.3,46,94.1,31.3,81.8,21.7L81.8,21.7z M68.9,23.7c-0.8,0-1.5-0.1-2.3-0.3
		L60.6,41l8.9-1.4L56.9,59.9l10.4-2.5l-35,41.8c3.3,3.2,3.7,8.4,0.9,12c-2.8,3.6-8,4.5-11.9,2.1c-3.9-2.5-5.3-7.5-3.2-11.6
		c2.1-4.1,7-6,11.3-4.3l9.9-21.7l-9.7,2.6l15.8-22.6l-9.7,2.3l27.5-36.6c-2.9-2.4-4-6.4-2.7-10c1.3-3.6,4.7-5.9,8.4-5.9c5,0,9,4,9,9
		C77.9,19.6,73.9,23.6,68.9,23.7L68.9,23.7z"/>
</g>
</svg>
