<svg id="Layer_1" data-name="Layer 1" xmlns="http://www.w3.org/2000/svg" xmlns:xlink="http://www.w3.org/1999/xlink" viewBox="0 0 255.4 350.61"><defs><style>.cls-1{fill:#ffc24a;}.cls-2{fill:#ffa712;}.cls-2,.cls-5{fill-rule:evenodd;}.cls-3{filter:url(#filter-2);}.cls-4{fill:#f4bd62;}.cls-5{fill:#ffa50e;}.cls-6{filter:url(#filter-4);}.cls-7{fill:#f6820c;}.cls-8{fill:#fde068;}.cls-9{fill:#fcca3f;}.cls-10{fill:#eeab37;}</style><filter id="filter-2" x="-50%" y="-50%" width="200%" height="200%" name="filter-2"><feGaussianBlur result="shadowBlurInner1" stdDeviation="17.5" in="SourceAlpha"/><feOffset result="shadowOffsetInner1" in="shadowBlurInner1"/><feComposite result="shadowInnerInner1" operator="arithmetic" k2="-1" k3="1" in="shadowOffsetInner1" in2="SourceAlpha"/><feColorMatrix values="0 0 0 0 0 0 0 0 0 0 0 0 0 0 0 0 0 0 0.06 0" in="shadowInnerInner1"/></filter><filter id="filter-4" x="-50%" y="-50%" width="200%" height="200%" name="filter-4"><feGaussianBlur result="shadowBlurInner1" stdDeviation="3.5" in="SourceAlpha"/><feOffset result="shadowOffsetInner1" dx="1" dy="-9" in="shadowBlurInner1"/><feComposite result="shadowInnerInner1" operator="arithmetic" k2="-1" k3="1" in="shadowOffsetInner1" in2="SourceAlpha"/><feColorMatrix values="0 0 0 0 0 0 0 0 0 0 0 0 0 0 0 0 0 0 0.09 0" in="shadowInnerInner1"/></filter></defs><path class="cls-1" d="M0,283l2.12-3L102.53,89.51l.21-2L58.48,4.36A8.22,8.22,0,0,0,43.11,7Z" transform="translate(0 0)"/><path id="path-1" class="cls-2" d="M1.25,280.73l1.61-3.13L102.21,89.08,58.06,5.61c-3.67-6.89-13-5.14-14.19,2.58Z" transform="translate(0 0)"/><g class="cls-3"><path id="path-1-2" data-name="path-1" d="M1.25,280.73l1.61-3.13L102.21,89.08,58.06,5.61c-3.67-6.89-13-5.14-14.19,2.58Z" transform="translate(0 0)"/></g><path class="cls-4" d="M135,150.38l33-33.75L135,53.7a8.5,8.5,0,0,0-15,0L102.42,87.29v2.86Z" transform="translate(0 0)"/><path id="path-3" class="cls-5" d="M134.42,149l32-32.81-32-61c-3-5.79-10.44-6.39-13.45-.59l-17.7,34.11-.53,1.75Z" transform="translate(0 0)"/><g class="cls-6"><path id="path-3-2" data-name="path-3" d="M134.42,149l32-32.81-32-61c-3-5.79-10.44-6.39-13.45-.59l-17.7,34.11-.53,1.75Z" transform="translate(0 0)"/></g><polygon class="cls-7" points="0 283 0.96 282.03 4.46 280.61 132.94 152.61 134.56 148.18 102.51 87.11 0 283"/><path class="cls-8" d="M139.12,347.55,255.4,282.7,222.19,78.21a8,8,0,0,0-13.47-4.34L0,283l115.61,64.55a24.13,24.13,0,0,0,23.51,0" transform="translate(0 0)"/><path class="cls-9" d="M254.35,282.16,221.4,79.22c-1-6.35-7.56-9-12.1-4.43L1.29,282.6l114.34,63.91a23.94,23.94,0,0,0,23.33,0Z" transform="translate(0 0)"/><path class="cls-10" d="M139.12,345.64a24.13,24.13,0,0,1-23.51,0L.93,282,0,283l115.61,64.55a24.13,24.13,0,0,0,23.51,0L255.4,282.7l-.29-1.75Z" transform="translate(0 0)"/></svg>