<?xml version="1.0" encoding="utf-8"?>
<!-- Generator: Adobe Illustrator 24.2.0, SVG Export Plug-In . SVG Version: 6.00 Build 0)  -->
<svg version="1.1" id="Layer_1" xmlns="http://www.w3.org/2000/svg" xmlns:xlink="http://www.w3.org/1999/xlink" x="0px" y="0px"
	 viewBox="0 0 71.8 18.6" style="enable-background:new 0 0 71.8 18.6;" xml:space="preserve">
<style type="text/css">
	.st0{fill:#003082;}
</style>
<g id="Layer_2_1_">
	<g id="TOEFL">
		<path class="st0" d="M5,3H0l0.5-2.7h13.1L13.1,3h-5L5.2,18.3H2.1L5,3z"/>
		<path class="st0" d="M19.2,18.6c-4.7,0-7.1-3.4-7.1-7.4c-0.1-3.2,1.2-6.3,3.4-8.7c1.7-1.6,4-2.5,6.3-2.5c4.8,0,7.1,3.4,7.1,7.5
			c0.1,3.2-1.1,6.2-3.2,8.5C24,17.7,21.7,18.6,19.2,18.6L19.2,18.6z M19.7,16c1.3,0,2.6-0.6,3.5-1.5c1.5-1.6,2.4-4.6,2.4-6.9
			s-0.8-4.9-4.1-4.9c-1.4,0-2.6,0.6-3.6,1.5c-1.6,1.9-2.5,4.3-2.5,6.8C15.4,13.7,16.6,16,19.7,16L19.7,16z"/>
		<path class="st0" d="M40.6,10.3h-6.5l-1,5.4h7.3l-0.5,2.7H29.5l3.4-18h10L42.4,3h-6.9l-0.9,4.7h6.5L40.6,10.3z"/>
		<path class="st0" d="M45.8,0.3h9.9l-0.5,2.7h-6.8l-1,5.1h6.3l-0.5,2.6H47l-1.4,7.7h-3.2L45.8,0.3z"/>
		<path class="st0" d="M58.5,0.3h3.1l-2.9,15.3h7.1l-0.5,2.7H55.1L58.5,0.3z"/>
		<path class="st0" d="M71,17.6c-0.8,0.9-2.1,1-3,0.3c-0.9-0.8-1-2.1-0.3-3c0.1-0.1,0.2-0.2,0.3-0.3c0.8-0.9,2.1-1,3-0.3
			s1,2.1,0.3,3C71.2,17.4,71.1,17.5,71,17.6z M68.2,14.8c-0.7,0.7-0.7,1.9,0,2.6c0.7,0.7,1.9,0.7,2.6,0s0.7-1.9,0-2.6
			c-0.3-0.3-0.8-0.5-1.3-0.5C69,14.3,68.5,14.5,68.2,14.8L68.2,14.8z M69.4,14.9c0.2,0,0.4,0,0.6,0.1c0.2,0.1,0.4,0.3,0.4,0.6
			c0,0.2-0.1,0.4-0.2,0.5c-0.1,0.1-0.2,0.1-0.3,0.1c0.2,0,0.3,0.1,0.4,0.2c0.1,0.1,0.1,0.2,0.1,0.4v0.2c0,0,0,0.1,0,0.2
			c0,0,0,0.1,0,0.1l0,0H70V17c0-0.2-0.1-0.4-0.2-0.5c-0.1-0.1-0.3-0.1-0.5-0.1H69v0.9h-0.4v-2.4L69.4,14.9z M69.9,15.3
			c-0.2-0.1-0.3-0.1-0.5-0.1H69v0.9h0.4c0.1,0,0.3,0,0.4,0c0.2-0.1,0.3-0.3,0.2-0.6C69.9,15.4,69.9,15.3,69.9,15.3L69.9,15.3z"/>
	</g>
</g>
</svg>
