<svg id="Layer_1" data-name="Layer 1" xmlns="http://www.w3.org/2000/svg" xmlns:xlink="http://www.w3.org/1999/xlink" viewBox="0 0 192 192"><defs><style>.cls-1{fill:none;}.cls-2{clip-path:url(#clip-path);}.cls-3{fill:#ffc107;}.cls-4{fill:#ffb300;}.cls-5{fill:#fff;fill-rule:evenodd;}</style><clipPath id="clip-path"><circle class="cls-1" cx="96" cy="96" r="96"/></clipPath></defs><g class="cls-2"><path class="cls-3" d="M0,0H192V192H0Z"/><path class="cls-4" d="M1054,1119.33,54,119.33V100.67l9.69-4.31L54,86.67V68L96,49.33,138,68,1138,1068v18.67l-25.2-11.2,25.2,25.2v18.66l-22-9.8,16.8,16.8L1096,1142.67l-29.08-29.08Z"/><path class="cls-4" d="M54,119.33V100.67l9.69-4.31L54,86.67V68L96,49.33,138,68l54,54v70H126.67Z"/><path class="cls-5" d="M96,100.67,54,119.33V100.67L96,82l42,18.67v18.66Zm0-51.34L138,68V86.67L96,68,54,86.67V68ZM111.75,117l21,9.33L96,142.67V124Z"/></g></svg>