<svg id="Layer_1" data-name="Layer 1" xmlns="http://www.w3.org/2000/svg" viewBox="0 0 32.7 26.52"><defs><style>.cls-1{fill:#ea4335;}.cls-2{fill:#4285f4;}.cls-3{fill:#34a853;}.cls-4{fill:#fbbc05;}</style></defs><path class="cls-1" d="M94.9,8.1h1l2.8-2.9L98.9,4A12.82,12.82,0,0,0,80.8,5.1,14.15,14.15,0,0,0,78,10.2a1.73,1.73,0,0,1,1-.1l5.7-.9s.3-.5.4-.4a7.15,7.15,0,0,1,9.8-.7Z" transform="translate(-74.1 -0.78)"/><path class="cls-2" d="M102.8,10.3a12.67,12.67,0,0,0-3.9-6.2l-4,4a7,7,0,0,1,2.6,5.6v.7a3.6,3.6,0,0,1,0,7.2H90.4l-.7.7v4.3l.7.7h7.1a9.26,9.26,0,0,0,9.3-9.2A8.88,8.88,0,0,0,102.8,10.3Z" transform="translate(-74.1 -0.78)"/><path class="cls-3" d="M83.3,27.2h7.1V21.5H83.3a4,4,0,0,1-1.5-.3l-1,.3L78,24.3l-.2,1A8.94,8.94,0,0,0,83.3,27.2Z" transform="translate(-74.1 -0.78)"/><path class="cls-4" d="M83.3,8.7A9.26,9.26,0,0,0,74.1,18a9.44,9.44,0,0,0,3.6,7.3l4.1-4.1a3.56,3.56,0,1,1,2.9-6.5,3.92,3.92,0,0,1,1.8,1.8l4.1-4.1A8.82,8.82,0,0,0,83.3,8.7Z" transform="translate(-74.1 -0.78)"/></svg>