<svg id="Layer_2" data-name="Layer 2" xmlns="http://www.w3.org/2000/svg" viewBox="0 0 665.8 593"><defs><style>.cls-1{fill:#61dafb;}</style></defs><path class="cls-1" d="M753.9,296.5c0-44.1-55.2-85.9-139.9-111.8,19.5-86.3,10.9-155-27.4-177C577.8,2.5,567.5.1,556.2.1V30.4c6.2,0,11.3,1.2,15.5,3.5,18.5,10.6,26.5,50.9,20.2,102.7-1.5,12.8-3.9,26.2-6.9,39.9a665.78,665.78,0,0,0-86.2-14.8,658,658,0,0,0-56.5-67.9c44.2-41.1,85.8-63.6,114-63.6V0h0C519,0,470.1,26.6,420.7,72.7,371.3,26.9,322.5.5,285.2.5V30.8c28.1,0,69.8,22.4,114,63.2a630.15,630.15,0,0,0-56,67.7,647.49,647.49,0,0,0-86.3,14.9c-3.1-13.6-5.4-26.7-7.1-39.4-6.4-51.8,1.5-92.1,19.8-102.9,4.1-2.4,9.4-3.5,15.6-3.5V.7h0c-11.4,0-21.7,2.4-30.7,7.6-38.1,22-46.7,90.5-27,176.6C143.1,211,88.1,252.6,88.1,296.6S143.3,382.5,228,408.4c-19.5,86.3-10.9,155,27.4,177,8.8,5.2,19.1,7.6,30.5,7.6,37.3,0,86.2-26.6,135.6-72.7,49.4,45.9,98.3,72.2,135.6,72.2,11.4,0,21.7-2.4,30.7-7.6,38.1-22,46.7-90.5,27-176.6C698.9,382.3,753.9,340.5,753.9,296.5ZM577.2,206c-5,17.5-11.3,35.6-18.3,53.6-5.6-10.9-11.4-21.7-17.8-32.6-6.2-10.9-12.9-21.4-19.5-31.8C540.8,198.1,559.4,201.7,577.2,206ZM515,350.5c-10.6,18.3-21.4,35.7-32.7,51.8-20.2,1.8-40.7,2.7-61.3,2.7s-41-.9-61.1-2.6c-11.3-16.1-22.3-33.4-32.8-51.6q-15.45-26.7-28.2-54c8.4-18.2,17.9-36.4,28.1-54.1,10.6-18.3,21.4-35.7,32.7-51.8,20.2-1.8,40.7-2.7,61.3-2.7s41,.9,61.1,2.6c11.3,16.1,22.3,33.4,32.8,51.6q15.45,26.7,28.2,54C534.6,314.6,525.2,332.8,515,350.5Zm43.9-17.6c7.3,18.2,13.6,36.4,18.7,54-17.8,4.3-36.5,8-55.9,10.9,6.6-10.4,13.3-21.2,19.5-32.2S553.3,343.7,558.9,332.9ZM421.3,477.7a557.08,557.08,0,0,1-37.7-43.4c12.2.5,24.7.9,37.3.9,12.8,0,25.4-.3,37.7-.9A531.88,531.88,0,0,1,421.3,477.7Zm-101-79.9c-19.3-2.8-37.9-6.4-55.6-10.7,5-17.5,11.3-35.6,18.3-53.6,5.6,10.9,11.4,21.7,17.8,32.6S313.7,387.4,320.3,397.8ZM420.6,115.4a557.08,557.08,0,0,1,37.7,43.4c-12.2-.5-24.7-.9-37.3-.9-12.8,0-25.4.3-37.7.9A515.51,515.51,0,0,1,420.6,115.4ZM320.2,195.3c-6.6,10.4-13.3,21.2-19.5,32.2s-12.1,21.7-17.6,32.6c-7.3-18.2-13.6-36.4-18.7-54C282,201.8,300.8,198.1,320.2,195.3ZM197.4,365.2c-48-20.5-79.1-47.4-79.1-68.7s31.1-48.3,79.1-68.7c11.7-5,24.4-9.5,37.6-13.7a645.08,645.08,0,0,0,30.5,82.6A648.33,648.33,0,0,0,235.4,379C221.9,374.8,209.2,370.2,197.4,365.2Zm73,193.9c-18.5-10.6-26.5-50.9-20.2-102.7,1.5-12.8,3.9-26.2,6.9-39.9a665.78,665.78,0,0,0,86.2,14.8,658,658,0,0,0,56.5,67.9c-44.2,41.1-85.8,63.6-114,63.6C279.6,562.6,274.4,561.4,270.4,559.1ZM592.3,455.7c6.4,51.8-1.5,92.1-19.8,102.9-4.1,2.4-9.4,3.5-15.6,3.5-28.1,0-69.8-22.4-114-63.2a630.15,630.15,0,0,0,56-67.7,647.49,647.49,0,0,0,86.3-14.9A382.4,382.4,0,0,1,592.3,455.7Zm52.2-90.5c-11.7,5-24.4,9.5-37.6,13.7a645.08,645.08,0,0,0-30.5-82.6,641.62,641.62,0,0,0,30.1-82.2c13.4,4.2,26.2,8.8,38.1,13.8,48,20.5,79.1,47.4,79.1,68.7S692.5,344.8,644.5,365.2Z" transform="translate(-88.1)"/><path class="cls-1" d="M285,.5Z" transform="translate(-88.1)"/><circle class="cls-1" cx="332.8" cy="296.5" r="62"/><path class="cls-1" d="M556,.1Z" transform="translate(-88.1)"/></svg>