<?xml version="1.0" encoding="utf-8"?>
<!-- Generator: Adobe Illustrator 24.2.0, SVG Export Plug-In . SVG Version: 6.00 Build 0)  -->
<svg version="1.1" id="Layer_1" xmlns="http://www.w3.org/2000/svg" xmlns:xlink="http://www.w3.org/1999/xlink" x="0px" y="0px"
	 viewBox="0 0 255.4 248.7" style="enable-background:new 0 0 255.4 248.7;" xml:space="preserve">
<style type="text/css">
	.st0{fill:#326DE6;}
	.st1{fill:#FFFFFF;}
</style>
<g>
	<path class="st0" d="M81.6,244.8c-5.9,0-11.6-2.6-15.4-7.4L8.4,165.5c-3.8-4.8-5.3-10.9-3.8-16.8L25.2,59
		C26.6,53,30.5,48.2,36,45.6l83.6-40c2.6-1.3,5.6-2,8.6-2c3,0,5.9,0.7,8.6,2l83.6,39.8c5.5,2.6,9.4,7.4,10.7,13.4l20.6,89.7
		c1.3,5.9,0,12.1-3.8,16.8l-57.8,71.8c-3.8,4.6-9.4,7.4-15.4,7.4L81.6,244.8L81.6,244.8z"/>
	<path class="st1" d="M128,7.8c2.3,0,4.6,0.5,6.8,1.5l83.6,39.8c4.3,2.1,7.6,6.1,8.6,10.7l20.6,89.7c1.2,4.8,0,9.7-3.1,13.5
		l-57.8,71.8c-3,3.8-7.6,5.9-12.4,5.9H81.6c-4.8,0-9.4-2.1-12.4-5.9L11.4,163c-3-3.8-4.1-8.8-3.1-13.5l20.6-89.7
		C30,55,33.2,51,37.5,49.1l83.6-40C123.2,8.3,125.7,7.8,128,7.8L128,7.8z M128,0L128,0c-3.5,0-6.9,0.8-10.2,2.3l-83.6,40
		c-6.6,3.1-11.2,8.9-12.9,16L0.6,148c-1.7,7.1,0,14.4,4.6,20.1L63.1,240c4.5,5.6,11.2,8.8,18.3,8.8H174c7.1,0,13.9-3.1,18.3-8.8
		l57.8-71.8c4.6-5.6,6.3-13,4.6-20.1l-20.6-89.7c-1.7-7.1-6.3-12.9-12.9-16L138,2.3C134.9,0.8,131.4,0,128,0L128,0L128,0z"/>
	<path class="st1" d="M211.7,142.4L211.7,142.4L211.7,142.4C211.5,142.4,211.5,142.4,211.7,142.4h-0.2c-0.2,0-0.3,0-0.3-0.2
		c-0.3,0-0.7-0.2-1-0.2c-1.2-0.2-2.1-0.3-3.1-0.3c-0.5,0-1,0-1.7-0.2h-0.2c-3.5-0.3-6.3-0.7-8.9-1.5c-1.2-0.5-1.5-1.2-1.8-1.8
		c0-0.2-0.2-0.2-0.2-0.3l0,0l-2.1-0.7c1-7.6,0.7-15.5-1.2-23.3s-5-15-9.2-21.6l1.7-1.5v-0.3c0-0.8,0.2-1.7,0.8-2.5
		c2-1.8,4.5-3.3,7.4-5.1l0,0c0.5-0.3,1-0.5,1.5-0.8c1-0.5,1.8-1,2.8-1.7c0.2-0.2,0.5-0.3,0.8-0.7c0.2-0.2,0.3-0.2,0.3-0.3l0,0
		c2.3-2,2.8-5.3,1.2-7.4c-0.8-1.2-2.3-1.8-3.8-1.8c-1.3,0-2.5,0.5-3.6,1.3l0,0l0,0c-0.2,0.2-0.2,0.2-0.3,0.3
		c-0.3,0.2-0.5,0.5-0.8,0.7c-0.8,0.8-1.5,1.5-2.1,2.3c-0.3,0.3-0.7,0.8-1.2,1.2l0,0c-2.3,2.5-4.5,4.5-6.6,5.9
		c-0.5,0.3-1,0.5-1.5,0.5c-0.3,0-0.7,0-1-0.2H177l0,0l-2,1.3c-2.1-2.3-4.5-4.3-6.8-6.3c-9.9-7.8-22-12.6-34.5-13.7l-0.2-2.1
		c-0.2-0.2-0.2-0.2-0.3-0.3c-0.5-0.5-1.2-1-1.3-2.1c-0.2-2.6,0.2-5.6,0.5-8.9v-0.2c0-0.5,0.2-1.2,0.3-1.7c0.2-1,0.3-2,0.5-3.1v-1
		v-0.5l0,0l0,0c0-3-2.3-5.5-5.1-5.5c-1.3,0-2.6,0.7-3.6,1.7s-1.5,2.3-1.5,3.8l0,0l0,0v0.3v1c0,1.2,0.2,2.1,0.5,3.1
		c0.2,0.5,0.2,1,0.3,1.7v0.2c0.3,3.3,0.8,6.3,0.5,8.9c-0.2,1.2-0.8,1.7-1.3,2.1c-0.2,0.2-0.2,0.2-0.3,0.3l0,0l-0.2,2.1
		c-3,0.3-5.9,0.7-8.9,1.3c-12.7,2.8-23.9,9.2-32.7,18.5l-1.7-1.2h-0.3c-0.3,0-0.7,0.2-1,0.2c-0.5,0-1-0.2-1.5-0.5
		c-2.1-1.5-4.3-3.6-6.6-6.1l0,0c-0.3-0.3-0.7-0.8-1.2-1.2c-0.7-0.8-1.3-1.5-2.1-2.3c-0.2-0.2-0.5-0.3-0.8-0.7
		c-0.2-0.2-0.3-0.2-0.3-0.3l0,0c-1-0.8-2.3-1.3-3.6-1.3c-1.5,0-3,0.7-3.8,1.8c-1.7,2.1-1.2,5.5,1.2,7.4l0,0l0,0
		c0.2,0,0.2,0.2,0.3,0.2c0.3,0.2,0.5,0.5,0.8,0.7c1,0.7,1.8,1.2,2.8,1.7c0.5,0.2,1,0.5,1.5,0.8l0,0c3,1.8,5.5,3.3,7.4,5.1
		c0.8,0.8,0.8,1.7,0.8,2.5v0.3l0,0l1.7,1.5c-0.3,0.5-0.7,0.8-0.8,1.3c-8.3,13-11.4,28.4-9.2,43.6l-2.1,0.7c0,0.2-0.2,0.2-0.2,0.3
		c-0.3,0.7-0.8,1.3-1.8,1.8c-2.5,0.8-5.5,1.2-8.9,1.5h-0.2c-0.5,0-1.2,0-1.7,0.2c-1,0-2,0.2-3.1,0.3c-0.3,0-0.7,0.2-1,0.2
		c-0.2,0-0.3,0-0.5,0.2l0,0l0,0c-3,0.7-4.8,3.5-4.3,6.1c0.5,2.3,2.6,3.8,5.3,3.8c0.5,0,0.8,0,1.3-0.2l0,0l0,0c0.2,0,0.3,0,0.3-0.2
		c0.3,0,0.7-0.2,1-0.2c1.2-0.3,2-0.7,3-1.2c0.5-0.2,1-0.5,1.5-0.7h0.2c3.1-1.2,5.9-2.1,8.6-2.5h0.3c1,0,1.7,0.5,2.1,0.8
		c0.2,0,0.2,0.2,0.3,0.2l0,0l2.3-0.3c4,12.2,11.6,23.1,21.6,31.1c2.3,1.8,4.6,3.3,7.1,4.8l-1,2.1c0,0.2,0.2,0.2,0.2,0.3
		c0.3,0.7,0.7,1.5,0.3,2.6c-1,2.5-2.5,5-4.3,7.8v0.2c-0.3,0.5-0.7,0.8-1,1.3c-0.7,0.8-1.2,1.7-1.8,2.6c-0.2,0.2-0.3,0.5-0.5,0.8
		c0,0.2-0.2,0.3-0.2,0.3l0,0l0,0c-1.3,2.8-0.3,5.9,2.1,7.1c0.7,0.3,1.3,0.5,2,0.5c2,0,4-1.3,5-3.1l0,0l0,0c0-0.2,0.2-0.3,0.2-0.3
		c0.2-0.3,0.3-0.7,0.5-0.8c0.5-1.2,0.7-2,1-3c0.2-0.5,0.3-1,0.5-1.5l0,0c1.2-3.3,2-5.9,3.5-8.3c0.7-1,1.5-1.2,2.1-1.5
		c0.2,0,0.2,0,0.3-0.2l0,0l1.2-2.1c7.3,2.8,15.2,4.3,23.1,4.3c4.8,0,9.7-0.5,14.4-1.7c3-0.7,5.8-1.5,8.6-2.5l1,1.8
		c0.2,0,0.2,0,0.3,0.2c0.8,0.2,1.5,0.5,2.1,1.5c1.3,2.3,2.3,5.1,3.5,8.3v0.2c0.2,0.5,0.3,1,0.5,1.5c0.3,1,0.5,2,1,3
		c0.2,0.3,0.3,0.5,0.5,0.8c0,0.2,0.2,0.3,0.2,0.3l0,0l0,0c1,2,3,3.1,5,3.1c0.7,0,1.3-0.2,2-0.5c1.2-0.7,2.1-1.7,2.5-3
		s0.3-2.8-0.3-4.1l0,0l0,0c0-0.2-0.2-0.2-0.2-0.3c-0.2-0.3-0.3-0.7-0.5-0.8c-0.5-1-1.2-1.8-1.8-2.6c-0.3-0.5-0.7-0.8-1-1.3v-0.2
		c-1.8-2.8-3.5-5.3-4.3-7.8c-0.3-1.2,0-1.8,0.2-2.6c0-0.2,0.2-0.2,0.2-0.3l0,0l-0.8-2c8.8-5.1,16.2-12.4,21.8-21.3
		c3-4.6,5.3-9.7,6.9-14.9l2,0.3c0.2,0,0.2-0.2,0.3-0.2c0.7-0.3,1.2-0.8,2.1-0.8h0.3c2.6,0.3,5.5,1.3,8.6,2.5h0.2
		c0.5,0.2,1,0.5,1.5,0.7c1,0.5,1.8,0.8,3,1.2c0.3,0,0.7,0.2,1,0.2c0.2,0,0.3,0,0.5,0.2l0,0c0.5,0.2,0.8,0.2,1.3,0.2
		c2.5,0,4.6-1.7,5.3-3.8C216.5,145.8,214.7,143.2,211.7,142.4L211.7,142.4z M135.2,134.3l-7.3,3.5l-7.3-3.5l-1.8-7.8l5-6.3h8.1
		l5,6.3L135.2,134.3L135.2,134.3z M178.3,117.1c1.3,5.6,1.7,11.2,1.2,16.7l-25.3-7.3c-2.3-0.7-3.6-3-3.1-5.3c0.2-0.7,0.5-1.3,1-1.8
		l20-18C174.9,106,177,111.3,178.3,117.1L178.3,117.1z M164.1,91.5l-21.6,15.4c-1.8,1.2-4.3,0.8-5.8-1c-0.5-0.5-0.7-1.2-0.8-1.8
		l-1.5-26.9C145.8,78.5,156.2,83.6,164.1,91.5L164.1,91.5z M116.2,78c1.8-0.3,3.5-0.7,5.3-1l-1.5,26.4c-0.2,2.3-2,4.3-4.5,4.3
		c-0.7,0-1.5-0.2-2-0.5l-22-15.7C98.4,84.7,106.8,80.1,116.2,78L116.2,78z M83.7,101.4l19.7,17.5c1.8,1.5,2,4.3,0.5,6.1
		c-0.5,0.7-1.2,1.2-2,1.3l-25.6,7.4C75.3,122.5,77.8,111.2,83.7,101.4L83.7,101.4z M79.2,146.2l26.3-4.5c2.1-0.2,4.1,1.3,4.6,3.5
		c0.2,1,0.2,1.8-0.2,2.6l0,0l-10.1,24.3C90.6,166.2,83.2,157.1,79.2,146.2L79.2,146.2z M139.5,179c-3.8,0.8-7.6,1.3-11.6,1.3
		c-5.8,0-11.4-1-16.7-2.6l13-23.6c1.3-1.5,3.5-2.1,5.3-1.2c0.8,0.5,1.5,1.2,2,1.8l0,0l12.7,23C142.8,178.2,141.2,178.5,139.5,179
		L139.5,179z M171.7,156.1c-4.1,6.6-9.6,11.9-15.9,16l-10.4-24.9c-0.5-2,0.3-4.1,2.3-5.1c0.7-0.3,1.5-0.5,2.3-0.5l26.4,4.5
		C175.5,149.6,173.9,152.9,171.7,156.1L171.7,156.1z"/>
</g>
</svg>
